<?xml version="1.0" encoding="iso-8859-1"?>
<!-- Generator: Adobe Illustrator 19.0.0, SVG Export Plug-In . SVG Version: 6.00 Build 0)  -->
<svg xmlns="http://www.w3.org/2000/svg" xmlns:xlink="http://www.w3.org/1999/xlink" version="1.1" id="Capa_1" x="0px" y="0px" viewBox="0 0 512 512" style="enable-background:new 0 0 512 512;" xml:space="preserve" width="512px" height="512px">
<g>
	<g>
		<path d="M491.375,157.662c-13.15-30.297-31.856-57.697-55.598-81.439s-51.142-42.448-81.439-55.598C322.809,6.939,289.723,0,256,0    c-33.723,0-66.809,6.939-98.338,20.625c-30.297,13.15-57.697,31.856-81.439,55.598c-23.742,23.742-42.448,51.142-55.598,81.439    C6.939,189.191,0,222.277,0,256s6.939,66.809,20.625,98.338c13.149,30.297,31.855,57.697,55.598,81.439    c23.742,23.742,51.142,42.448,81.439,55.598C189.191,505.061,222.277,512,256,512s66.809-6.939,98.338-20.625    c30.297-13.15,57.697-31.856,81.439-55.598s42.448-51.142,55.598-81.439C505.061,322.809,512,289.723,512,256    C512,222.277,505.061,189.191,491.375,157.662z M256,492C128.075,492,20,383.925,20,256S128.075,20,256,20s236,108.075,236,236    S383.925,492,256,492z" fill="#38c172"/>
	</g>
</g>
<g>
	<g>
		<path d="M451.975,173.804c-10.87-25.256-26.363-48.044-46.049-67.729c-19.686-19.686-42.473-35.179-67.729-46.049    C311.948,48.728,284.293,43,256,43c-38.462,0-78.555,13.134-115.945,37.981c-4.6,3.057-5.851,9.264-2.794,13.863    c3.057,4.6,9.264,5.85,13.863,2.794C185.224,74.978,221.489,63,256,63c104.617,0,193,88.383,193,193s-88.383,193-193,193    S63,360.617,63,256c0-34.504,11.975-70.771,34.629-104.877c3.056-4.601,1.804-10.807-2.796-13.863    c-4.602-3.056-10.807-1.803-13.863,2.797C56.13,177.454,43,217.546,43,256c0,28.293,5.728,55.948,17.025,82.196    c10.87,25.256,26.363,48.044,46.049,67.729c19.686,19.687,42.473,35.179,67.73,46.05C200.052,463.272,227.707,469,256,469    c28.293,0,55.948-5.728,82.196-17.025c25.256-10.87,48.044-26.363,67.729-46.049c19.686-19.686,35.179-42.473,46.049-67.729    C463.272,311.948,469,284.293,469,256C469,227.707,463.272,200.052,451.975,173.804z" fill="#38c172"/>
	</g>
</g>
<g>
	<g>
		<path d="M115,105c-5.52,0-10,4.48-10,10s4.48,10,10,10s10-4.48,10-10S120.52,105,115,105z" fill="#38c172"/>
	</g>
</g>
<g>
	<g>
		<path d="M374.281,177.719C366.724,170.162,356.681,166,346,166c-10.681,0-20.724,4.162-28.281,11.719L226,269.438l-31.719-31.719    C186.724,230.162,176.681,226,166,226c-10.681,0-20.724,4.162-28.278,11.716C130.163,245.269,126,255.313,126,266    s4.163,20.731,11.719,28.281l60,60C205.276,361.838,215.32,366,226,366s20.724-4.162,28.281-11.719l119.997-119.997    C381.837,226.731,386,216.687,386,206S381.837,185.269,374.281,177.719z M360.139,220.139l-120,120    C236.359,343.918,231.338,346,226,346s-10.359-2.082-14.139-5.861l-60.003-60.003C148.081,276.361,146,271.341,146,266    s2.081-10.361,5.861-14.139c3.78-3.779,8.801-5.861,14.139-5.861s10.359,2.082,14.139,5.861L226,297.722l105.861-105.861    c3.78-3.779,8.801-5.861,14.139-5.861s10.359,2.082,14.142,5.864C363.919,195.639,366,200.659,366,206    S363.919,216.361,360.139,220.139z" fill="#38c172"/>
	</g>
</g>
<g>
</g>
<g>
</g>
<g>
</g>
<g>
</g>
<g>
</g>
<g>
</g>
<g>
</g>
<g>
</g>
<g>
</g>
<g>
</g>
<g>
</g>
<g>
</g>
<g>
</g>
<g>
</g>
<g>
</g>
</svg>
